<svg width="22" height="22" viewBox="0 0 22 22" fill="none" xmlns="http://www.w3.org/2000/svg">
<path d="M20.72 17.08C20.72 17.44 20.64 17.81 20.47 18.17C20.3 18.53 20.08 18.87 19.79 19.19C19.3 19.73 18.76 20.12 18.15 20.37C17.55 20.62 16.9 20.75 16.2 20.75C15.18 20.75 14.09 20.51 12.94 20.02C11.79 19.53 10.64 18.87 9.5 18.04C8.35 17.2 7.26 16.27 6.22 15.24C5.19 14.2 4.26 13.11 3.43 11.97C2.61 10.83 1.95 9.69 1.47 8.56C0.99 7.42 0.75 6.33 0.75 5.29C0.75 4.61 0.87 3.96 1.11 3.36C1.35 2.75 1.73 2.19 2.26 1.69C2.9 1.06 3.6 0.75 4.34 0.75C4.62 0.75 4.9 0.81 5.15 0.93C5.41 1.05 5.64 1.23 5.82 1.49L8.14 4.76C8.32 5.01 8.45 5.24 8.54 5.46C8.63 5.67 8.68 5.88 8.68 6.07C8.68 6.31 8.61 6.55 8.47 6.78C8.34 7.01 8.15 7.25 7.91 7.49L7.15 8.28C7.04 8.39 6.99 8.52 6.99 8.68C6.99 8.76 7 8.83 7.02 8.91C7.05 8.99 7.08 9.05 7.1 9.11C7.28 9.44 7.59 9.87 8.03 10.39C8.48 10.91 8.96 11.44 9.48 11.97C10.02 12.5 10.54 12.99 11.07 13.44C11.59 13.88 12.02 14.18 12.36 14.36C12.41 14.38 12.47 14.41 12.54 14.44C12.62 14.47 12.7 14.48 12.79 14.48C12.96 14.48 13.09 14.42 13.2 14.31L13.96 13.56C14.21 13.31 14.45 13.12 14.68 13C14.91 12.86 15.14 12.79 15.39 12.79C15.58 12.79 15.78 12.83 16 12.92C16.22 13.01 16.45 13.14 16.7 13.31L20.01 15.66C20.27 15.84 20.45 16.05 20.56 16.3C20.66 16.55 20.72 16.8 20.72 17.08Z" stroke="#DFBF7F" stroke-width="1.5" stroke-miterlimit="10"/>
</svg>
