<svg width="24" height="24" viewBox="0 0 24 24" fill="none" xmlns="http://www.w3.org/2000/svg">
<path d="M6 4.80001C6 4.13729 6.53728 3.60001 7.2 3.60001H22.8C23.4627 3.60001 24 4.13729 24 4.80001C24 5.46272 23.4627 6.00001 22.8 6.00001H7.2C6.53728 6.00001 6 5.46268 6 4.80001ZM22.8 10.8H1.2C0.537281 10.8 0 11.3373 0 12C0 12.6627 0.537281 13.2 1.2 13.2H22.8C23.4627 13.2 24 12.6627 24 12C24 11.3373 23.4627 10.8 22.8 10.8ZM22.8 18H12C11.3373 18 10.8 18.5373 10.8 19.2C10.8 19.8627 11.3373 20.4 12 20.4H22.8C23.4627 20.4 24 19.8627 24 19.2C24 18.5373 23.4627 18 22.8 18Z" fill="#003C54"/>
</svg>
